# xmcd CD database file
#
# Track frame offsets:
#	150
#	14895
#	22592
#
# Disc length: 502 seconds
#
# Revision: 4
# Processed by: cddbd v1.5.1PL0 Copyright (c) Steve Scherf et al.
# Submitted via: CDex 1.51
#
DISCID=1801f403
DTITLE=The Hellacopters - Everything's On TV
DYEAR=2005
DGENRE=Rock
TTITLE0=Everything's On TV
TTITLE1=It Might Mean Something To You
TTITLE2=1995 - Live
EXTD=YEAR: 2005
EXTT0=
EXTT1=
EXTT2=
PLAYORDER=
